<svg xmlns="http://www.w3.org/2000/svg" style="display:none">
  <symbol id="ic-select" viewBox="0 0 24 24" fill="none" stroke="currentColor" stroke-width="1.8" stroke-linecap="round" stroke-linejoin="round"><path d="M5 3 L11.5 20 L13.9 13.9 L20 11.5 Z"></path></symbol>
  <symbol id="ic-boundary" viewBox="0 0 24 24" fill="none" stroke="currentColor" stroke-width="1.8" stroke-linecap="round" stroke-linejoin="round"><path d="M5 8 L12 4 L19 8 L16.8 17.5 L7.2 17.5 Z"></path><circle cx="5" cy="8" r="1.5" fill="currentColor" stroke="none"></circle><circle cx="12" cy="4" r="1.5" fill="currentColor" stroke="none"></circle><circle cx="19" cy="8" r="1.5" fill="currentColor" stroke="none"></circle><circle cx="16.8" cy="17.5" r="1.5" fill="currentColor" stroke="none"></circle><circle cx="7.2" cy="17.5" r="1.5" fill="currentColor" stroke="none"></circle></symbol>
  <symbol id="ic-line" viewBox="0 0 24 24" fill="none" stroke="currentColor" stroke-width="1.8" stroke-linecap="round" stroke-linejoin="round"><path d="M5.5 18.5 L18.5 5.5"></path><circle cx="5.5" cy="18.5" r="2" fill="currentColor" stroke="none"></circle><circle cx="18.5" cy="5.5" r="2" fill="currentColor" stroke="none"></circle></symbol>
  <symbol id="ic-zone" viewBox="0 0 24 24" fill="none" stroke="currentColor" stroke-width="1.8" stroke-linecap="round" stroke-linejoin="round"><path d="M12 3.5 L20.5 8.25 L12 13 L3.5 8.25 Z"></path><path d="M3.5 8.25 V15.75 L12 20.5 L20.5 15.75 V8.25"></path><path d="M12 13 V20.5"></path></symbol>
  <symbol id="ic-hatch" viewBox="0 0 24 24" fill="none" stroke="currentColor" stroke-width="1.8" stroke-linecap="round" stroke-linejoin="round"><rect x="4.5" y="4.5" width="15" height="15" rx="1.6"></rect><path d="M6 17 L17 6 M10.5 19 L19 10.5 M5 12.5 L12.5 5"></path></symbol>
  <symbol id="ic-redline" viewBox="0 0 24 24" fill="none" stroke="currentColor" stroke-width="1.8" stroke-linecap="round" stroke-linejoin="round"><path d="M4 20 L20 4"></path><path d="M4 15.5 V20 H8.5"></path><path d="M15.5 4 H20 V8.5"></path></symbol>
  <symbol id="ic-dimension" viewBox="0 0 24 24" fill="none" stroke="currentColor" stroke-width="1.8" stroke-linecap="round" stroke-linejoin="round"><path d="M4 7 V17 M20 7 V17 M4 12 H20"></path><path d="M8 8.5 L4.5 12 L8 15.5 M16 8.5 L19.5 12 L16 15.5"></path></symbol>
  <symbol id="ic-measure" viewBox="0 0 24 24" fill="none" stroke="currentColor" stroke-width="1.8" stroke-linecap="round" stroke-linejoin="round"><path d="M3 15 L15 3 L21 9 L9 21 Z"></path><path d="M7 11 l2 2 M10.5 7.5 l2.5 2.5 M14 4 l2 2"></path></symbol>
  <symbol id="ic-snap" viewBox="0 0 24 24" fill="none" stroke="currentColor" stroke-width="1.8" stroke-linecap="round" stroke-linejoin="round"><path d="M12 2.5 V6.5 M12 17.5 V21.5 M2.5 12 H6.5 M17.5 12 H21.5"></path><circle cx="12" cy="12" r="3.5"></circle><circle cx="12" cy="12" r="0.8" fill="currentColor" stroke="none"></circle></symbol>
  <symbol id="ic-vertex" viewBox="0 0 24 24" fill="none" stroke="currentColor" stroke-width="1.8" stroke-linecap="round" stroke-linejoin="round"><circle cx="12" cy="12" r="6.5"></circle><circle cx="12" cy="12" r="2.3" fill="currentColor" stroke="none"></circle></symbol>
  <symbol id="ic-label" viewBox="0 0 24 24" fill="none" stroke="currentColor" stroke-width="1.8" stroke-linecap="round" stroke-linejoin="round"><path d="M12.6 2.6 A2 2 0 0 0 11.2 2 H4 a2 2 0 0 0 -2 2 v7.2 a2 2 0 0 0 .6 1.4 l8.7 8.7 a2.4 2.4 0 0 0 3.4 0 l6.6 -6.6 a2.4 2.4 0 0 0 0 -3.4 Z"></path><circle cx="7.5" cy="7.5" r="1.4" fill="currentColor" stroke="none"></circle></symbol>
  <symbol id="ic-undo" viewBox="0 0 24 24" fill="none" stroke="currentColor" stroke-width="1.8" stroke-linecap="round" stroke-linejoin="round"><path d="M4 12 H14.5 a5 5 0 1 1 -5 5"></path><path d="M8 8 L4 12 L8 16"></path></symbol>
  <symbol id="ic-redo" viewBox="0 0 24 24" fill="none" stroke="currentColor" stroke-width="1.8" stroke-linecap="round" stroke-linejoin="round"><path d="M20 12 H9.5 a5 5 0 1 0 5 5"></path><path d="M16 8 L20 12 L16 16"></path></symbol>
  <symbol id="ic-refresh" viewBox="0 0 24 24" fill="none" stroke="currentColor" stroke-width="1.8" stroke-linecap="round" stroke-linejoin="round"><path d="M21 3 v6 h-6"></path><path d="M3 12 a9 9 0 0 1 15 -6.7 L21 9"></path><path d="M3 21 v-6 h6"></path><path d="M21 12 a9 9 0 0 1 -15 6.7 L3 15"></path></symbol>
  <symbol id="ic-plus" viewBox="0 0 24 24" fill="none" stroke="currentColor" stroke-width="1.8" stroke-linecap="round" stroke-linejoin="round"><path d="M12 5 V19 M5 12 H19"></path></symbol>
  <symbol id="ic-close" viewBox="0 0 24 24" fill="none" stroke="currentColor" stroke-width="1.8" stroke-linecap="round" stroke-linejoin="round"><path d="M6 6 L18 18 M18 6 L6 18"></path></symbol>
  <symbol id="ic-grip" viewBox="0 0 24 24" fill="currentColor" stroke="none"><circle cx="9" cy="6" r="1.4"></circle><circle cx="15" cy="6" r="1.4"></circle><circle cx="9" cy="12" r="1.4"></circle><circle cx="15" cy="12" r="1.4"></circle><circle cx="9" cy="18" r="1.4"></circle><circle cx="15" cy="18" r="1.4"></circle></symbol>
  <symbol id="ic-menu-dots" viewBox="0 0 24 24" fill="currentColor" stroke="none"><circle cx="5" cy="12" r="1.7"></circle><circle cx="12" cy="12" r="1.7"></circle><circle cx="19" cy="12" r="1.7"></circle></symbol>
  <symbol id="ic-eye" viewBox="0 0 24 24" fill="none" stroke="currentColor" stroke-width="1.8" stroke-linecap="round" stroke-linejoin="round"><path d="M2.5 12 s3.8 -7 9.5 -7 9.5 7 9.5 7 -3.8 7 -9.5 7 -9.5 -7 -9.5 -7 Z"></path><circle cx="12" cy="12" r="3"></circle></symbol>
  <symbol id="ic-eye-off" viewBox="0 0 24 24" fill="none" stroke="currentColor" stroke-width="1.8" stroke-linecap="round" stroke-linejoin="round"><path d="M10.73 5.08 a10.7 10.7 0 0 1 11.2 6.57 1 1 0 0 1 0 .7 10.7 10.7 0 0 1 -1.44 2.49"></path><path d="M14.08 14.16 a3 3 0 0 1 -4.24 -4.24"></path><path d="M17.48 17.5 a10.75 10.75 0 0 1 -15.42 -5.15 1 1 0 0 1 0 -.7 10.75 10.75 0 0 1 4.45 -5.14"></path><path d="M2 2 L22 22"></path></symbol>
  <symbol id="ic-layers" viewBox="0 0 24 24" fill="none" stroke="currentColor" stroke-width="1.8" stroke-linecap="round" stroke-linejoin="round"><path d="M12 2.5 L21 7 L12 11.5 L3 7 Z"></path><path d="M3 12 l9 4.5 9 -4.5"></path><path d="M3 17 l9 4.5 9 -4.5"></path></symbol>
  <symbol id="ic-table" viewBox="0 0 24 24" fill="none" stroke="currentColor" stroke-width="1.8" stroke-linecap="round" stroke-linejoin="round"><rect x="4" y="5" width="16" height="14" rx="2"></rect><path d="M4 10 H20 M12 5 V19"></path></symbol>
  <symbol id="ic-chevron" viewBox="0 0 24 24" fill="none" stroke="currentColor" stroke-width="1.8" stroke-linecap="round" stroke-linejoin="round"><path d="M9.5 6 L15.5 12 L9.5 18"></path></symbol>
  <symbol id="ic-file" viewBox="0 0 24 24" fill="none" stroke="currentColor" stroke-width="1.8" stroke-linecap="round" stroke-linejoin="round"><path d="M14 3 H7 a2 2 0 0 0 -2 2 V19 a2 2 0 0 0 2 2 H17 a2 2 0 0 0 2 -2 V8 Z"></path><path d="M14 3 V8 H19"></path></symbol>
  <symbol id="ic-pdf" viewBox="0 0 24 24" fill="none" stroke="currentColor" stroke-width="1.8" stroke-linecap="round" stroke-linejoin="round"><path d="M14 3 H7 a2 2 0 0 0 -2 2 V19 a2 2 0 0 0 2 2 H17 a2 2 0 0 0 2 -2 V8 Z"></path><path d="M14 3 V8 H19"></path><path d="M8.5 12.5 H15.5 M8.5 16 H13"></path></symbol>
  <symbol id="ic-import" viewBox="0 0 24 24" fill="none" stroke="currentColor" stroke-width="1.8" stroke-linecap="round" stroke-linejoin="round"><path d="M12 3 V14"></path><path d="M7.5 10 L12 14.5 L16.5 10"></path><path d="M4.5 16 V18 a2 2 0 0 0 2 2 H17.5 a2 2 0 0 0 2 -2 V16"></path></symbol>
  <symbol id="ic-trash" viewBox="0 0 24 24" fill="none" stroke="currentColor" stroke-width="1.8" stroke-linecap="round" stroke-linejoin="round"><path d="M4 7 H20"></path><path d="M9 7 V4.5 a1.5 1.5 0 0 1 1.5 -1.5 h3 a1.5 1.5 0 0 1 1.5 1.5 V7"></path><path d="M6.5 7 l.8 12 a2 2 0 0 0 2 1.9 h5.4 a2 2 0 0 0 2 -1.9 l.8 -12"></path><path d="M10.5 11 V17 M13.5 11 V17"></path></symbol>
  <symbol id="ic-format" viewBox="0 0 24 24" fill="none" stroke="currentColor" stroke-width="1.8" stroke-linecap="round" stroke-linejoin="round"><path d="M9.5 12 l8 -8 a2.5 2.5 0 0 1 3.5 3.5 l-8 8"></path><path d="M7.2 14.6 a3 3 0 0 0 -3 3 c0 1.4 -2.2 1.6 -1.6 2.1 1 1.1 2.6 2 4.1 2 a4 4 0 0 0 4 -4 3 3 0 0 0 -3.5 -3.1 z"></path></symbol>
  <symbol id="ic-search" viewBox="0 0 24 24" fill="none" stroke="currentColor" stroke-width="1.8" stroke-linecap="round" stroke-linejoin="round"><circle cx="11" cy="11" r="6.5"></circle><path d="M20 20 L16 16"></path></symbol>
  <symbol id="ic-filter" viewBox="0 0 24 24" fill="none" stroke="currentColor" stroke-width="1.8" stroke-linecap="round" stroke-linejoin="round"><path d="M4 5 H20 L14 12 V19 L10 21 V12 Z"></path></symbol>
  <symbol id="ic-grid" viewBox="0 0 24 24" fill="none" stroke="currentColor" stroke-width="1.8" stroke-linecap="round" stroke-linejoin="round"><rect x="4" y="4" width="16" height="16" rx="2"></rect><path d="M4 12 H20 M12 4 V20"></path></symbol>
  <symbol id="ic-check" viewBox="0 0 24 24" fill="none" stroke="currentColor" stroke-width="2" stroke-linecap="round" stroke-linejoin="round"><path d="M5 12.5 L9.5 17 L19 6.5"></path></symbol>
  <symbol id="ic-north" viewBox="0 0 24 24" fill="none" stroke="currentColor" stroke-width="1.8" stroke-linecap="round" stroke-linejoin="round"><circle cx="12" cy="12" r="9"></circle><path d="M12 5.5 L14.2 14 L12 12 L9.8 14 Z" fill="currentColor" stroke="none"></path></symbol>
</svg>